<svg width="28" height="28" viewBox="0 0 28 28" fill="none" xmlns="http://www.w3.org/2000/svg">
<path d="M4.19995 6.99998C4.19995 6.62867 4.34745 6.27258 4.61 6.01003C4.87255 5.74748 5.22865 5.59998 5.59995 5.59998H22.4C22.7713 5.59998 23.1273 5.74748 23.3899 6.01003C23.6525 6.27258 23.7999 6.62867 23.7999 6.99998H4.19995ZM14 18.2C14.3678 18.2 14.7321 18.1275 15.0719 17.9867C15.4118 17.846 15.7206 17.6396 15.9807 17.3795C16.2408 17.1194 16.4471 16.8106 16.5879 16.4708C16.7287 16.1309 16.8011 15.7667 16.8011 15.3988C16.8011 15.031 16.7287 14.6667 16.5879 14.3268C16.4471 13.987 16.2408 13.6782 15.9807 13.4181C15.7206 13.158 15.4118 12.9516 15.0719 12.8109C14.7321 12.6701 14.3678 12.5976 14 12.5976C13.257 12.5976 12.5445 12.8928 12.0192 13.4181C11.4939 13.9434 11.1988 14.6559 11.1988 15.3988C11.1988 16.1417 11.4939 16.8542 12.0192 17.3795C12.5445 17.9049 13.257 18.2 14 18.2Z" fill="#33CCCC"/>
<path d="M2.80005 9.80002C2.80005 9.61617 2.83626 9.43412 2.90662 9.26427C2.97697 9.09441 3.0801 8.94008 3.2101 8.81007C3.3401 8.68007 3.49444 8.57695 3.66429 8.50659C3.83415 8.43624 4.0162 8.40002 4.20005 8.40002H23.8C23.9839 8.40002 24.166 8.43624 24.3358 8.50659C24.5057 8.57695 24.66 8.68007 24.79 8.81007C24.92 8.94008 25.0231 9.09441 25.0935 9.26427C25.1638 9.43412 25.2 9.61617 25.2 9.80002V21C25.2 21.3713 25.0525 21.7274 24.79 21.99C24.5274 22.2525 24.1714 22.4 23.8 22.4H4.20005C3.82875 22.4 3.47265 22.2525 3.2101 21.99C2.94755 21.7274 2.80005 21.3713 2.80005 21V9.80002ZM7.00005 9.80002C7.00005 10.1677 6.92762 10.5318 6.78691 10.8715C6.6462 11.2113 6.43995 11.5199 6.17995 11.7799C5.91994 12.0399 5.61127 12.2462 5.27156 12.3869C4.93185 12.5276 4.56775 12.6 4.20005 12.6V18.2C4.94265 18.2 5.65485 18.495 6.17995 19.0201C6.70505 19.5452 7.00005 20.2574 7.00005 21H21C21 20.2574 21.295 19.5452 21.8202 19.0201C22.3453 18.495 23.0574 18.2 23.8 18.2V12.6C23.0574 12.6 22.3453 12.305 21.8202 11.7799C21.295 11.2548 21 10.5426 21 9.80002H7.00005Z" fill="#33CCCC"/>
</svg>
