<svg width="56" height="56" viewBox="0 0 56 56" fill="none" xmlns="http://www.w3.org/2000/svg">
<g clip-path="url(#clip0_605_16496)">
<path fill-rule="evenodd" clip-rule="evenodd" d="M13.1589 6.15891C17.0956 2.22225 22.4327 0.00738513 28 0C33.5673 0.00738513 38.9044 2.22225 42.8411 6.15891C46.7777 10.0956 48.9926 15.4327 49 21C49 36.0763 29.435 54.9588 28.6037 55.755C28.4421 55.9122 28.2255 56.0001 28 56.0001C27.7745 56.0001 27.5579 55.9122 27.3962 55.755C26.565 54.9588 7 36.0763 7 21C7.00739 15.4327 9.22225 10.0956 13.1589 6.15891Z" fill="#E52D2B"/>
<g clip-path="url(#clip1_605_16496)">
<path d="M46.7051 2.29492H9.70508V39.2949H46.7051V2.29492Z" fill="#E52D2B"/>
<path fill-rule="evenodd" clip-rule="evenodd" d="M28.1357 5.5293C36.6052 5.5293 43.4733 12.3945 43.4733 20.8641C43.4733 28.637 37.6863 35.06 30.188 36.063V34.0222C36.5676 33.0365 41.4528 27.5212 41.4528 20.8641C41.4528 13.5103 35.4894 7.54985 28.1357 7.54985C21.4757 7.54985 15.9575 12.4408 14.9747 18.8291H12.9368C13.9311 11.3221 20.357 5.5293 28.1357 5.5293V5.5293Z" fill="#FFCD00"/>
<path fill-rule="evenodd" clip-rule="evenodd" d="M28.1185 8.96875C34.6918 8.96875 40.0221 14.302 40.0221 20.8839C40.0221 26.7634 35.7671 31.6486 30.168 32.6227V30.5646C34.6485 29.6194 38.0103 25.6448 38.0103 20.8839C38.0103 15.4206 33.5818 10.9893 28.1185 10.9893C23.3519 10.9893 19.3715 14.3598 18.435 18.846H16.3855C17.351 13.2353 22.2361 8.96875 28.1185 8.96875V8.96875Z" fill="white"/>
<path fill-rule="evenodd" clip-rule="evenodd" d="M28.0806 12.5137C32.723 12.5137 36.4866 16.2802 36.4866 20.9225C36.4866 24.8595 33.7838 28.1606 30.1301 29.077V26.9726C32.6536 26.1199 34.466 23.7322 34.466 20.9225C34.466 17.3959 31.6072 14.5342 28.0806 14.5342C25.2652 14.5342 22.8746 16.3582 22.0248 18.8846H19.9204C20.831 15.2251 24.1378 12.5137 28.0806 12.5137V12.5137Z" fill="#FFCD00"/>
</g>
</g>
<defs>
<clipPath id="clip0_605_16496">
<rect width="56" height="56" fill="white"/>
</clipPath>
<clipPath id="clip1_605_16496">
<rect x="10" y="2" width="37" height="37" rx="16" fill="white"/>
</clipPath>
</defs>
</svg>
